<?xml version="1.0" encoding="utf-8"?><svg xml:space="preserve" viewBox="0 0 100 100" y="0px" x="0px" xmlns:xlink="http://www.w3.org/1999/xlink" xmlns="http://www.w3.org/2000/svg" id="Layer_1" version="1.1" width="200px" height="200px" style="width:100%;height:100%;background-size:initial;background-repeat-y:initial;background-repeat-x:initial;background-position-y:initial;background-position-x:initial;background-origin:initial;background-color:initial;background-clip:initial;background-attachment:initial;animation-play-state:paused" ><g class="ldl-scale" style="transform-origin:50% 50%;transform:rotate(0deg) scale(0.8, 0.8);animation-play-state:paused" ><path d="M73.93,38.34c6.65-9.16,5.76-17.45,0.17-21.51c-5.59-4.06-13.74-2.35-20.4,6.81c-1.96,2.7-3.09,6.11-3.7,9.56 c-0.61-3.46-1.74-6.86-3.7-9.56c-6.65-9.16-14.81-10.87-20.4-6.81s-6.48,12.35,0.17,21.51c1.96,2.7,4.86,4.82,7.95,6.47 c-3.48-0.49-7.06-0.47-10.24,0.56c-10.77,3.5-14.91,10.73-12.78,17.3c2.13,6.57,9.74,9.98,20.51,6.48c3.18-1.03,6.09-3.13,8.62-5.56 c-1.54,3.16-2.63,6.57-2.63,9.91C37.5,84.82,43.1,91,50,91s12.5-6.18,12.5-17.5c0-3.34-1.09-6.76-2.63-9.91 c2.53,2.44,5.44,4.53,8.62,5.56c10.77,3.5,18.37,0.09,20.51-6.48c2.13-6.57-2.01-13.8-12.78-17.3c-3.18-1.03-6.76-1.05-10.24-0.56 C69.07,43.16,71.96,41.04,73.93,38.34z" stroke-miterlimit="10" stroke-linejoin="round" stroke-linecap="round" stroke-width="3.5" stroke="#333435" fill="#E15D64" style="stroke:rgb(51, 52, 53);fill:rgb(255, 136, 136);animation-play-state:paused" ></path>
<path d="M76.21,54.63c10.77-3.5,12.78-17.3,12.78-17.3s-9.74-9.98-20.51-6.48c-3.18,1.03-6.09,3.13-8.62,5.56c1.54-3.16,2.63-6.57,2.63-9.91 C62.5,15.18,50,9,50,9s-12.5,6.18-12.5,17.5c0,3.34,1.09,6.76,2.63,9.91c-2.53-2.44-5.44-4.53-8.62-5.56 c-10.77-3.5-20.51,6.48-20.51,6.48s2.01,13.8,12.78,17.3c3.18,1.03,6.76,1.05,10.24,0.56c-3.1,1.65-5.99,3.77-7.95,6.47 c-6.65,9.16-0.17,21.51-0.17,21.51s13.74,2.35,20.4-6.81c1.96-2.7,3.09-6.11,3.7-9.56c0.61,3.46,1.74,6.86,3.7,9.56 c6.65,9.16,20.4,6.81,20.4,6.81s6.48-12.35-0.17-21.51c-1.96-2.7-4.86-4.82-7.95-6.47C69.45,55.67,73.03,55.66,76.21,54.63z" stroke-miterlimit="10" stroke-linejoin="round" stroke-linecap="round" stroke-width="3.5" stroke="#333435" fill="#F8AFB4" style="stroke:rgb(51, 52, 53);fill:rgb(255, 186, 196);animation-play-state:paused" ></path>
<g style="animation-play-state:paused" ><circle r="6" cy="50" cx="50" stroke-miterlimit="10" stroke-linejoin="round" stroke-linecap="round" stroke-width="3.5" stroke="#333435" fill="#FFFFFF" style="stroke:rgb(51, 52, 53);fill:rgb(255, 255, 255);animation-play-state:paused" ></circle>
<line y2="29" x2="50" y1="44" x1="50" stroke-miterlimit="10" stroke-linejoin="round" stroke-linecap="round" stroke-width="3.5" stroke="#333435" fill="none" style="stroke:rgb(51, 52, 53);animation-play-state:paused" ></line>
<line y2="42" x2="44" y1="45.15" x1="46.47" stroke-miterlimit="10" stroke-linejoin="round" stroke-linecap="round" stroke-width="3.5" stroke="#333435" fill="none" style="stroke:rgb(51, 52, 53);animation-play-state:paused" ></line>
<line y2="53.23" x2="40.54" y1="51.85" x1="44.29" stroke-miterlimit="10" stroke-linejoin="round" stroke-linecap="round" stroke-width="3.5" stroke="#333435" fill="none" style="stroke:rgb(51, 52, 53);animation-play-state:paused" ></line>
<line y2="60" x2="50.15" y1="56" x1="50" stroke-miterlimit="10" stroke-linejoin="round" stroke-linecap="round" stroke-width="3.5" stroke="#333435" fill="none" style="stroke:rgb(51, 52, 53);animation-play-state:paused" ></line>
<line y2="52.95" x2="59.56" y1="51.85" x1="55.71" stroke-miterlimit="10" stroke-linejoin="round" stroke-linecap="round" stroke-width="3.5" stroke="#333435" fill="none" style="stroke:rgb(51, 52, 53);animation-play-state:paused" ></line>
<line y2="41.82" x2="55.75" y1="45.15" x1="53.53" stroke-miterlimit="10" stroke-linejoin="round" stroke-linecap="round" stroke-width="3.5" stroke="#333435" fill="none" style="stroke:rgb(51, 52, 53);animation-play-state:paused" ></line>
<line y2="43.51" x2="30.03" y1="48.15" x1="44.29" stroke-miterlimit="10" stroke-linejoin="round" stroke-linecap="round" stroke-width="3.5" stroke="#333435" fill="none" style="stroke:rgb(51, 52, 53);animation-play-state:paused" ></line>
<line y2="66.99" x2="37.66" y1="54.85" x1="46.47" stroke-miterlimit="10" stroke-linejoin="round" stroke-linecap="round" stroke-width="3.5" stroke="#333435" fill="none" style="stroke:rgb(51, 52, 53);animation-play-state:paused" ></line>
<line y2="66.99" x2="62.34" y1="54.85" x1="53.53" stroke-miterlimit="10" stroke-linejoin="round" stroke-linecap="round" stroke-width="3.5" stroke="#333435" fill="none" style="stroke:rgb(51, 52, 53);animation-play-state:paused" ></line>
<line y2="43.51" x2="69.97" y1="48.15" x1="55.71" stroke-miterlimit="10" stroke-linejoin="round" stroke-linecap="round" stroke-width="3.5" stroke="#333435" fill="none" style="stroke:rgb(51, 52, 53);animation-play-state:paused" ></line></g>
<metadata xmlns:d="https://loading.io/stock/" style="animation-play-state:paused" ><d:name style="animation-play-state:paused" >sakura</d:name>


<d:tags style="animation-play-state:paused" >sakura,flower,petal,cherry blossom,bloom,plum,peach</d:tags>


<d:license style="animation-play-state:paused" >by</d:license>


<d:slug style="animation-play-state:paused" >3dwrm4</d:slug></metadata></g><!-- generated by https://loading.io/ --></svg>