<svg xmlns="http://www.w3.org/2000/svg" xmlns:xlink="http://www.w3.org/1999/xlink" width="500" zoomAndPan="magnify" viewBox="0 0 375 374.999991" height="500" preserveAspectRatio="xMidYMid meet" version="1.0"><defs><clipPath id="4be3066ac6"><path d="M 71.203125 0 L 304.078125 0 L 304.078125 375 L 71.203125 375 Z M 71.203125 0 " clip-rule="nonzero"/></clipPath></defs><g clip-path="url(#4be3066ac6)"><path fill="#ff8888" d="M 288.789062 309.621094 C 283.730469 324.574219 278.234375 335.902344 274.195312 343.230469 C 274.882812 328.574219 291.539062 263.355469 294.039062 254.929688 C 296.40625 246.949219 295.496094 241.558594 294.53125 235.851562 C 293.738281 231.167969 292.921875 226.324219 294.058594 219.777344 C 295.097656 213.792969 299.339844 199.679688 301.347656 193.140625 C 306.003906 244.6875 297.199219 284.757812 288.789062 309.621094 Z M 278.53125 298.441406 C 280.230469 281.128906 281.25 259.519531 279.722656 236.511719 C 279.734375 236.464844 279.742188 236.421875 279.746094 236.371094 C 280.992188 220.539062 296.644531 195.785156 300.976562 189.207031 C 300.984375 189.277344 300.988281 189.34375 300.996094 189.414062 C 300.339844 191.5 293.980469 211.804688 292.636719 219.53125 C 291.457031 226.324219 292.296875 231.289062 293.109375 236.089844 C 294.046875 241.628906 294.929688 246.859375 292.65625 254.523438 C 290.648438 261.292969 271.242188 336.023438 272.847656 345.628906 C 271.90625 347.265625 271.078125 348.632812 270.390625 349.734375 C 272.789062 338.980469 276.347656 320.660156 278.53125 298.441406 Z M 266.816406 358.472656 C 266.128906 350.652344 265.109375 339.714844 263.757812 326.875 C 266.847656 315.917969 273.855469 241.234375 261.878906 214.0625 C 252.214844 192.152344 257.511719 160.746094 259.800781 149.882812 C 261.730469 161.910156 266.210938 172.410156 266.496094 173.070312 C 281.101562 217.007812 280.324219 265.40625 277.097656 298.273438 C 274.042969 329.421875 268.273438 352.878906 266.816406 358.472656 Z M 264.011719 373.558594 C 262.777344 373.582031 261.566406 372.035156 261.070312 371.238281 C 261.769531 361.148438 261.554688 349.597656 260.695312 337.304688 C 260.710938 337.199219 260.707031 337.089844 260.671875 336.984375 C 258.386719 304.566406 251.667969 267.046875 245.515625 237.621094 C 236.285156 193.46875 226.308594 157.523438 226.207031 157.164062 C 226.152344 156.96875 226.019531 156.816406 225.851562 156.726562 C 227.464844 156.300781 228.644531 155.871094 229.335938 155.589844 C 253.757812 209.535156 265.9375 364.746094 266.4375 371.265625 C 265.882812 372.335938 265.035156 373.53125 264.011719 373.558594 Z M 250.691406 332.445312 C 249.921875 328.34375 249.089844 324.207031 248.207031 320.0625 C 251.808594 325.589844 255.515625 331.402344 259.261719 337.390625 C 259.472656 340.433594 259.644531 343.421875 259.773438 346.351562 C 257.648438 342.605469 254.597656 337.9375 250.691406 332.445312 Z M 223.109375 229.789062 C 217.875 213.972656 213.855469 203.003906 212.890625 200.394531 C 214.484375 199.511719 219.136719 196.734375 224.246094 191.796875 C 223.0625 197.523438 220.644531 212.4375 223.109375 229.789062 Z M 237.027344 275.214844 C 237.101562 275.203125 237.179688 275.183594 237.25 275.144531 C 237.601562 274.960938 237.738281 274.523438 237.550781 274.171875 C 230.832031 261.507812 237.171875 212.59375 237.234375 212.101562 C 237.289062 211.707031 237.011719 211.34375 236.613281 211.292969 C 236.222656 211.242188 235.859375 211.519531 235.808594 211.914062 C 235.59375 213.523438 231.664062 243.886719 233.488281 262.929688 C 231.707031 256.898438 229.9375 251.109375 228.21875 245.648438 C 228.214844 245.589844 228.207031 245.535156 228.1875 245.480469 C 219.351562 218.4375 225.546875 192.289062 226.160156 189.859375 C 227.96875 187.945312 229.792969 185.769531 231.519531 183.3125 C 240.304688 218.523438 255.054688 283.144531 259.035156 334.316406 C 255.0625 327.996094 251.140625 321.886719 247.355469 316.125 C 244.300781 302.265625 240.714844 288.355469 237.027344 275.214844 Z M 251.394531 366.289062 C 250.140625 366.542969 248.667969 365.855469 247.011719 364.25 C 246.59375 361.832031 242.875 340.605469 237.621094 315.175781 C 236.328125 308.921875 234.933594 302.375 233.464844 295.746094 C 233.460938 295.738281 233.460938 295.730469 233.460938 295.722656 C 226.476562 264.242188 217.777344 230.976562 210.101562 219.179688 C 208.96875 203.875 203.410156 182.601562 184.394531 163.285156 C 182.160156 161.015625 180.0625 158.902344 178.082031 156.921875 C 175.324219 151.761719 170.460938 140.691406 167.925781 134.832031 C 170.636719 137.65625 173.394531 140.234375 176.191406 142.550781 C 179.160156 145.007812 182.179688 147.175781 185.234375 149.058594 C 188.507812 154.890625 206.121094 186.636719 206.609375 195.769531 C 206.617188 195.898438 206.722656 195.996094 206.847656 195.996094 C 206.851562 195.996094 206.859375 195.996094 206.863281 195.996094 C 206.996094 195.988281 207.097656 195.875 207.089844 195.742188 C 206.609375 186.730469 190.28125 157.078125 186.078125 149.578125 C 190.824219 152.417969 195.664062 154.550781 200.550781 155.976562 C 201.792969 160.472656 208.820312 186.425781 208.042969 195.734375 C 208.03125 195.867188 208.128906 195.984375 208.261719 195.996094 C 208.269531 195.996094 208.277344 195.996094 208.285156 195.996094 C 208.40625 195.996094 208.511719 195.902344 208.523438 195.777344 C 209.289062 186.570312 202.527344 161.359375 201.089844 156.136719 C 201.78125 156.328125 202.472656 156.515625 203.167969 156.679688 C 207.5 157.714844 211.445312 158.089844 214.894531 158.089844 C 215.351562 158.089844 215.796875 158.085938 216.238281 158.070312 C 217.695312 175.851562 207.722656 199.535156 207.621094 199.777344 C 207.464844 200.140625 207.632812 200.566406 208 200.71875 C 208.09375 200.761719 208.1875 200.777344 208.28125 200.777344 C 208.5625 200.777344 208.828125 200.613281 208.945312 200.339844 C 209.050781 200.097656 219.140625 176.144531 217.679688 158.007812 C 220.542969 157.835938 222.980469 157.417969 224.917969 156.960938 C 224.804688 157.128906 224.757812 157.339844 224.816406 157.550781 C 224.917969 157.910156 227.421875 166.96875 231.058594 181.460938 C 231.03125 181.492188 231.003906 181.523438 230.980469 181.558594 C 222.816406 193.675781 211.777344 199.359375 211.667969 199.414062 C 211.339844 199.582031 211.191406 199.964844 211.316406 200.3125 C 211.582031 201.007812 237.707031 270.839844 249.304688 332.867188 C 251.417969 344.183594 252.945312 354.695312 253.847656 364.117188 C 253.617188 364.582031 252.792969 366.011719 251.394531 366.289062 Z M 195.652344 265.324219 C 195.585938 265.34375 191.164062 266.539062 184.371094 267.371094 C 163.371094 266.816406 149.125 260.96875 140.855469 256.132812 C 131.816406 250.851562 127.761719 245.609375 127.695312 245.53125 C 95.164062 214.894531 82.292969 209.871094 78.066406 209.195312 C 85.394531 204.890625 94.351562 204.738281 96.199219 204.761719 C 104.261719 217.390625 115.421875 231.203125 127.011719 243.101562 C 140.617188 257.0625 156.511719 262.355469 167.449219 264.339844 C 173.144531 265.371094 178.070312 265.640625 181.6875 265.640625 C 185.597656 265.640625 187.980469 265.324219 188.164062 265.296875 C 188.558594 265.242188 188.835938 264.878906 188.78125 264.484375 C 188.726562 264.09375 188.363281 263.816406 187.96875 263.871094 C 187.882812 263.882812 179.289062 265.027344 167.652344 262.910156 C 156.9375 260.960938 141.371094 255.769531 128.046875 242.097656 C 100.839844 214.175781 81.914062 182.558594 85.855469 171.625 C 86.105469 170.933594 86.4375 170.308594 86.847656 169.738281 C 89.457031 173.769531 102.902344 194.144531 121.277344 214.820312 C 133.269531 228.316406 144.980469 239.296875 156.089844 247.457031 C 169.996094 257.671875 182.992188 263.472656 194.71875 264.703125 C 194.726562 264.703125 194.734375 264.703125 194.742188 264.703125 C 194.867188 264.703125 194.96875 264.613281 194.984375 264.488281 C 194.996094 264.359375 194.902344 264.238281 194.769531 264.226562 C 168.382812 261.457031 140.4375 235.660156 121.640625 214.507812 C 103.054688 193.59375 89.515625 172.984375 87.160156 169.335938 C 87.714844 168.65625 88.382812 168.070312 89.136719 167.558594 C 93.207031 170.742188 119.5625 191.53125 128.15625 201.972656 C 134.460938 213.558594 143.261719 225.503906 153.546875 236.183594 C 169.71875 252.964844 185.851562 262.988281 196.703125 262.988281 C 196.703125 262.988281 196.707031 262.988281 196.707031 262.988281 C 199.664062 262.988281 202.199219 262.230469 204.265625 260.75 C 206.277344 262.796875 215.492188 272.582031 232.085938 296.183594 C 233.308594 301.707031 234.480469 307.175781 235.582031 312.460938 C 217.363281 289.386719 196.601562 265.785156 196.386719 265.542969 C 196.203125 265.335938 195.917969 265.25 195.652344 265.324219 Z M 171.644531 268.167969 C 171.632812 268.167969 171.621094 268.167969 171.609375 268.167969 C 162.554688 268.164062 150.722656 266.847656 139.730469 261.609375 C 137.59375 259.730469 111.011719 236.3125 100.761719 226.078125 C 91.722656 217.050781 78.730469 212.808594 74.65625 211.648438 C 75.519531 210.886719 76.441406 210.210938 77.394531 209.609375 C 80.597656 209.886719 92.9375 213.457031 127.335938 245.847656 C 127.378906 245.902344 131.472656 251.203125 140.585938 256.535156 C 148.472656 261.148438 161.757812 266.679688 181.105469 267.722656 C 178.222656 267.988281 175.03125 268.167969 171.644531 268.167969 Z M 92.804688 230.347656 C 81.835938 223.980469 73.171875 218.953125 72.667969 215.066406 C 72.5625 214.28125 72.820312 213.539062 73.449219 212.8125 C 75.992188 213.480469 90.171875 217.539062 99.742188 227.09375 C 107.65625 235 125.25 250.710938 133.90625 258.382812 C 131.875 257.089844 129.894531 255.640625 128 254.003906 C 116.621094 244.171875 103.414062 236.507812 92.804688 230.347656 Z M 116.550781 165.796875 C 116.96875 170.476562 118.046875 175.910156 119.789062 182.089844 C 121.394531 187.78125 123.898438 193.855469 127.136719 200.0625 C 117.453125 189.292969 93.835938 170.628906 89.566406 167.285156 C 97.449219 162.472656 113.851562 165.289062 116.550781 165.796875 Z M 121.175781 181.699219 C 117.617188 169.078125 117.316406 161.085938 118.316406 156.03125 C 121.128906 161.464844 132.703125 183.507812 146.828125 205.953125 C 166.8125 237.71875 182.867188 256.339844 194.636719 261.421875 C 184.3125 260.21875 169.242188 250.398438 154.589844 235.183594 C 138.363281 218.34375 125.871094 198.347656 121.175781 181.699219 Z M 120.722656 150.1875 C 123.003906 147.179688 126.15625 146.550781 128.398438 146.550781 C 129.457031 146.550781 130.226562 146.695312 130.421875 146.734375 C 173.117188 164.398438 190.742188 194.148438 198.011719 216 C 205.378906 238.148438 203.898438 256.886719 203.652344 259.425781 C 201.800781 260.835938 199.464844 261.550781 196.707031 261.550781 C 196.707031 261.550781 196.703125 261.550781 196.703125 261.550781 C 196.550781 261.550781 196.390625 261.539062 196.234375 261.535156 C 169.003906 252.023438 123.152344 164.347656 118.476562 155.289062 C 119.019531 152.992188 119.84375 151.351562 120.722656 150.1875 Z M 125.691406 110.335938 C 125.691406 110.328125 125.695312 110.320312 125.699219 110.3125 C 126.089844 110.351562 127.742188 111.089844 133.28125 118.617188 C 133.28125 118.617188 133.28125 118.621094 133.285156 118.621094 C 134.199219 119.867188 135.214844 121.289062 136.355469 122.933594 C 140.609375 129.074219 144.515625 135.316406 144.9375 135.992188 C 146.265625 141.445312 149.671875 151.324219 151.199219 155.664062 C 146.691406 152.894531 141.921875 150.347656 136.910156 148.019531 C 131.683594 134.527344 124.453125 113.546875 125.691406 110.335938 Z M 153.167969 156.90625 C 150.828125 150.355469 147.523438 140.511719 146.300781 135.574219 C 146.300781 135.554688 146.292969 135.535156 146.289062 135.519531 C 145.953125 134.15625 145.777344 133.175781 145.832031 132.753906 L 145.855469 132.554688 C 145.878906 132.367188 145.902344 132.152344 145.941406 131.960938 C 148.664062 134.539062 161.871094 147.355469 174.84375 165.21875 C 186.855469 181.757812 200.859375 205.78125 203.21875 230.265625 C 202.332031 225.660156 201.097656 220.722656 199.398438 215.605469 C 194.714844 201.496094 187.453125 188.800781 177.824219 177.863281 C 170.84375 169.9375 162.589844 162.933594 153.167969 156.90625 Z M 208.816406 221.933594 C 209.53125 238.398438 205.492188 250.25 205.449219 250.367188 C 205.320312 250.742188 205.519531 251.152344 205.894531 251.285156 C 205.972656 251.3125 206.054688 251.324219 206.132812 251.324219 C 206.429688 251.324219 206.707031 251.136719 206.8125 250.839844 C 206.851562 250.722656 210.914062 238.835938 210.273438 222.304688 C 217.214844 235.058594 224.890625 264.152344 231.269531 292.535156 C 215.328125 270.117188 206.640625 261.089844 205.089844 259.535156 C 205.273438 257.601562 206.023438 247.921875 203.992188 234.734375 C 203.046875 208.601562 188.015625 182.535156 175.226562 164.929688 C 161.992188 146.710938 148.511719 133.722656 146.128906 131.472656 C 146.148438 131.453125 146.175781 131.433594 146.203125 131.421875 C 147.835938 130.863281 155.617188 136.109375 183.363281 164.292969 C 203.207031 184.449219 208.160156 206.761719 208.816406 221.933594 Z M 128.023438 84.152344 C 129.53125 84.289062 135.433594 89.609375 140.253906 94.679688 C 142 97.816406 143.886719 101.148438 145.925781 104.703125 C 151.933594 115.164062 158.3125 124.171875 164.988281 131.65625 C 165.453125 132.75 170.917969 145.554688 174.851562 153.707031 C 152.925781 132.003906 147.777344 129.363281 145.734375 130.058594 C 144.652344 130.429688 144.515625 131.605469 144.421875 132.386719 L 144.414062 132.46875 C 142.785156 129.921875 140.226562 125.988281 137.53125 122.097656 C 136.4375 120.519531 135.449219 119.136719 134.550781 117.910156 C 130.914062 103.066406 127.464844 86.5 128.023438 84.152344 Z M 121.714844 45.804688 C 122.425781 44.808594 123.882812 44.996094 125.71875 45.34375 C 126.355469 45.464844 126.90625 45.5625 127.378906 45.554688 C 128.425781 46.058594 136.8125 50.617188 143.351562 70.867188 C 144.074219 73.097656 144.808594 75.621094 145.585938 78.300781 C 152.5 102.058594 163.960938 141.417969 215.976562 156.613281 C 212.371094 156.707031 208.160156 156.390625 203.503906 155.28125 C 189.300781 151.890625 168 140.242188 147.175781 103.984375 C 122.492188 61.007812 119.707031 48.625 121.714844 45.804688 Z M 149.550781 73.78125 C 152.988281 85.90625 165.273438 125.214844 181.363281 131.179688 C 188.953125 138.519531 197.03125 143.058594 203.609375 145.828125 C 215.613281 150.886719 225.089844 151.292969 225.484375 151.308594 C 225.496094 151.308594 225.503906 151.308594 225.511719 151.308594 C 225.898438 151.308594 226.21875 151.003906 226.234375 150.613281 C 226.25 150.21875 225.9375 149.882812 225.539062 149.867188 C 225.445312 149.863281 215.933594 149.457031 204.167969 144.503906 C 202.292969 143.710938 200.289062 142.769531 198.214844 141.660156 C 184.328125 131.824219 174.640625 112.75 168.535156 96.652344 C 161.550781 78.246094 157.886719 60.378906 156.765625 54.390625 C 157.363281 40.796875 160.03125 30.886719 161.855469 27.617188 C 162.324219 32.9375 164.457031 52.644531 171.976562 75.289062 C 177.132812 90.816406 183.769531 104.671875 191.710938 116.460938 C 201.640625 131.210938 213.640625 142.761719 227.382812 150.796875 C 227.417969 150.816406 227.460938 150.828125 227.503906 150.828125 C 227.585938 150.828125 227.664062 150.785156 227.710938 150.707031 C 227.777344 150.59375 227.738281 150.449219 227.625 150.378906 C 196.644531 132.273438 180.515625 99.476562 172.4375 75.152344 C 164.589844 51.523438 162.617188 31.109375 162.28125 26.953125 C 162.355469 26.855469 162.425781 26.769531 162.496094 26.703125 C 162.714844 26.480469 163.214844 26.433594 163.898438 26.574219 C 171.972656 28.203125 196.726562 50.769531 205.769531 67.429688 C 207.195312 72.304688 209.660156 76.402344 213.121094 79.59375 C 231.648438 96.667969 229.007812 150.011719 228.980469 150.550781 C 228.964844 150.820312 229.105469 151.078125 229.34375 151.214844 C 229.457031 151.277344 229.578125 151.308594 229.699219 151.308594 C 229.839844 151.308594 229.980469 151.265625 230.101562 151.183594 C 243.867188 141.933594 253.125 123.5625 259.242188 93.375 C 263.386719 72.898438 259.722656 57.023438 255.066406 44.476562 C 255.089844 44.476562 255.109375 44.480469 255.128906 44.476562 C 255.523438 44.441406 255.816406 44.089844 255.78125 43.695312 C 255.039062 35.539062 264.0625 23.367188 266.527344 22.191406 C 266.519531 22.289062 266.5 22.417969 266.464844 22.582031 C 266.207031 23.832031 266.007812 26.035156 265.890625 29.019531 C 264.628906 36.035156 262.238281 54.074219 264.394531 81.652344 C 267.003906 115.027344 250.296875 138.433594 235.195312 148.335938 C 235.085938 148.40625 235.054688 148.554688 235.125 148.667969 C 235.171875 148.738281 235.25 148.777344 235.328125 148.777344 C 235.371094 148.777344 235.417969 148.761719 235.460938 148.738281 C 239.132812 146.328125 248.472656 139.273438 255.878906 125.8125 C 263.109375 112.65625 266.140625 97.789062 264.875 81.617188 C 263.019531 57.882812 264.535156 41.238281 265.792969 32.625 C 265.570312 46.414062 266.667969 71.105469 270.140625 96.433594 C 272.570312 114.144531 261.402344 128.832031 251.605469 138.03125 C 240.914062 148.066406 229.488281 153.949219 229.390625 154 C 229.332031 154.027344 225.945312 155.601562 220.25 156.300781 C 165.679688 142.179688 153.96875 101.945312 146.972656 77.898438 C 146.191406 75.210938 145.453125 72.671875 144.726562 70.425781 C 141.867188 61.578125 138.675781 55.652344 135.839844 51.699219 C 139.628906 54.882812 146.15625 61.808594 149.550781 73.78125 Z M 168.367188 111.183594 C 158.054688 91.15625 156.320312 70.441406 156.691406 56.535156 C 158.15625 63.9375 161.761719 80.15625 168.082031 96.816406 C 173.105469 110.054688 178.832031 120.976562 185.101562 129.28125 C 188.285156 133.496094 191.617188 137.027344 195.078125 139.886719 C 185.882812 134.367188 175.722656 125.460938 168.367188 111.183594 Z M 206.070312 50.808594 C 206.785156 44.222656 208.691406 37.34375 211.25 30.90625 C 212.769531 38.292969 219.023438 67.335938 224.839844 75.179688 C 231.210938 83.769531 237.550781 118.917969 230.335938 132.527344 C 230.171875 129.039062 229.90625 125.238281 229.496094 121.316406 C 227.289062 100.308594 222.109375 85.917969 214.097656 78.535156 C 211.808594 76.425781 210.105469 74.007812 208.851562 71.441406 C 209.003906 71.242188 209.050781 70.976562 208.949219 70.730469 C 208.449219 69.503906 207.835938 68.214844 207.113281 66.871094 C 205.535156 61.355469 205.554688 55.566406 206.070312 50.808594 Z M 224.847656 7.957031 C 224.703125 15.085938 224.445312 48.953125 231.777344 62.988281 C 239.792969 78.339844 242.191406 117.785156 230.542969 139.097656 C 230.515625 137.34375 230.460938 135.445312 230.375 133.433594 C 238.238281 120.191406 231.757812 83.699219 225.226562 74.894531 C 219.339844 66.957031 212.773438 35.925781 211.574219 30.09375 C 215.246094 21.101562 220.160156 13.046875 224.847656 7.957031 Z M 230.0625 3.515625 C 232.453125 2.117188 234.359375 1.441406 235.882812 1.441406 C 236.796875 1.441406 237.554688 1.695312 238.207031 2.179688 C 237.570312 6.710938 234.167969 32.847656 238.3125 44.914062 C 243.125 58.914062 256.816406 107.300781 233.054688 147.125 C 232.214844 147.84375 231.355469 148.527344 230.480469 149.164062 C 230.539062 147.417969 230.609375 144.203125 230.558594 140.058594 C 242.734375 118.796875 240.359375 78.382812 232.203125 62.769531 C 224.71875 48.445312 225.207031 13.179688 225.335938 7.433594 C 226.96875 5.730469 228.566406 4.390625 230.0625 3.515625 Z M 242.546875 13.71875 C 243.382812 17.671875 244.335938 22.152344 246.015625 26.457031 C 246.898438 28.710938 247.9375 31.097656 249.039062 33.625 C 255.039062 47.402344 263.257812 66.269531 257.828125 93.089844 C 252.5625 119.085938 244.988281 136.160156 234.21875 146.085938 C 243.9375 129.191406 248.21875 109.117188 246.941406 86.355469 C 245.902344 67.824219 241.375 52.335938 238.765625 44.757812 C 234.738281 33.039062 237.914062 7.824219 238.640625 2.550781 C 240.449219 4.320312 241.363281 8.160156 242.546875 13.71875 Z M 236.582031 170.6875 C 234.691406 164.84375 232.710938 159.546875 230.636719 154.96875 C 231.972656 154.246094 235.414062 152.3125 239.761719 149.332031 C 240.132812 156.855469 239.066406 164.027344 236.582031 170.6875 Z M 244.445312 199.917969 C 239.445312 174.941406 253.402344 154.9375 258.621094 148.507812 C 256.464844 158.371094 250.394531 191.59375 260.558594 214.644531 C 271.371094 239.167969 266.523438 302.910156 263.257812 322.199219 C 261.988281 310.414062 260.457031 297.25 258.660156 283.550781 C 255.28125 257.746094 250.53125 226.855469 244.457031 200.089844 C 244.460938 200.03125 244.457031 199.972656 244.445312 199.917969 Z M 302.425781 189.3125 C 302.351562 188.566406 302.28125 187.824219 302.199219 187.074219 C 302.167969 186.777344 301.949219 186.527344 301.660156 186.453125 C 301.367188 186.378906 301.058594 186.496094 300.890625 186.746094 C 300.113281 187.871094 283.589844 212.003906 279.257812 230.441406 C 277.628906 211.394531 274.175781 191.582031 267.855469 172.585938 C 267.847656 172.566406 267.839844 172.546875 267.832031 172.527344 C 267.773438 172.398438 262.148438 159.460938 260.703125 145.753906 C 260.703125 145.75 260.703125 145.746094 260.703125 145.742188 C 260.695312 145.683594 260.679688 145.625 260.65625 145.566406 C 260.652344 145.554688 260.644531 145.542969 260.640625 145.53125 C 260.621094 145.484375 260.59375 145.441406 260.566406 145.402344 C 260.558594 145.390625 260.550781 145.378906 260.542969 145.371094 C 260.503906 145.324219 260.460938 145.285156 260.414062 145.246094 C 260.402344 145.242188 260.394531 145.234375 260.382812 145.230469 C 260.339844 145.203125 260.296875 145.179688 260.25 145.160156 C 260.238281 145.15625 260.230469 145.152344 260.222656 145.148438 C 260.214844 145.144531 260.207031 145.144531 260.203125 145.144531 C 260.191406 145.140625 260.179688 145.132812 260.167969 145.132812 C 260.121094 145.117188 260.074219 145.109375 260.023438 145.109375 C 260.019531 145.109375 260.015625 145.109375 260.007812 145.109375 C 259.953125 145.109375 259.898438 145.113281 259.84375 145.125 C 259.828125 145.128906 259.8125 145.132812 259.792969 145.136719 C 259.746094 145.152344 259.699219 145.167969 259.65625 145.191406 C 259.644531 145.199219 259.636719 145.199219 259.628906 145.203125 C 259.574219 145.234375 259.53125 145.273438 259.488281 145.3125 C 259.480469 145.316406 259.476562 145.320312 259.46875 145.328125 C 259.238281 145.566406 253.71875 151.300781 248.882812 160.960938 C 245.421875 167.875 241.863281 177.867188 241.945312 189.578125 C 240.457031 183.683594 238.902344 178.078125 237.277344 172.871094 C 240.40625 165.292969 241.707031 157.050781 241.148438 148.363281 C 244.675781 145.871094 248.667969 142.761719 252.566406 139.101562 C 266.988281 125.566406 273.5625 110.746094 271.570312 96.242188 C 266.898438 62.179688 266.523438 29.382812 267.878906 22.875 C 267.953125 22.507812 268.1875 21.390625 267.476562 20.871094 C 267.042969 20.558594 266.480469 20.589844 265.804688 20.976562 C 262.460938 22.871094 254.464844 34.078125 254.304688 42.472656 C 252.992188 39.089844 251.628906 35.957031 250.363281 33.050781 C 249.265625 30.535156 248.230469 28.160156 247.359375 25.929688 C 245.722656 21.738281 244.785156 17.320312 243.957031 13.421875 C 242.363281 5.921875 241.105469 0 235.882812 0 C 234.09375 0 231.953125 0.742188 229.335938 2.273438 C 219.734375 7.878906 206.855469 30.234375 204.636719 50.652344 C 204.15625 55.085938 204.21875 59.199219 204.796875 62.949219 C 200.703125 56.546875 194.632812 49.28125 187.257812 42.070312 C 177.820312 32.835938 168.546875 26.042969 164.183594 25.164062 C 162.976562 24.917969 162.066406 25.09375 161.476562 25.683594 C 159.160156 27.996094 155.710938 39.933594 155.253906 56.332031 C 154.859375 70.40625 156.59375 91.464844 167.085938 111.839844 C 170.953125 119.355469 175.585938 125.40625 180.453125 130.28125 C 165.109375 123.105469 153.359375 85.445312 150.011719 73.648438 C 146.101562 59.855469 138.058594 52.679688 134.691406 50.179688 C 132.714844 47.699219 130.976562 46.1875 129.734375 45.300781 C 135.085938 44.707031 146.253906 44.222656 153.117188 55.253906 C 153.328125 55.589844 153.773438 55.695312 154.109375 55.484375 C 154.449219 55.273438 154.550781 54.828125 154.34375 54.492188 C 146.433594 41.78125 133.308594 43.402344 128.367188 44.011719 C 128.011719 44.054688 127.707031 44.09375 127.457031 44.117188 C 127.152344 44.144531 126.585938 44.042969 125.988281 43.929688 C 124.238281 43.597656 121.839844 43.144531 120.539062 44.972656 C 118.660156 47.609375 118.707031 55.332031 137.710938 90.078125 C 136.96875 89.351562 136.164062 88.585938 135.34375 87.832031 C 129.492188 82.449219 127.914062 82.324219 127.078125 82.988281 C 126.492188 83.457031 125.609375 84.160156 129.328125 101.574219 C 130.425781 106.710938 131.613281 111.824219 132.375 115.035156 C 127.414062 108.703125 126.136719 108.820312 125.511719 108.878906 C 125.199219 108.90625 124.632812 109.066406 124.34375 109.820312 C 122.671875 114.15625 132.234375 139.824219 135.035156 147.160156 C 133.675781 146.554688 132.308594 145.957031 130.914062 145.378906 C 130.878906 145.367188 130.84375 145.355469 130.808594 145.347656 C 130.769531 145.335938 129.804688 145.109375 128.398438 145.109375 C 125.828125 145.109375 122.214844 145.839844 119.574219 149.316406 C 117.078125 152.613281 116.035156 157.628906 116.441406 164.308594 C 111.765625 163.441406 88.597656 159.757812 84.5 171.136719 C 82.117188 177.738281 86.839844 189.769531 95.292969 203.320312 C 91.425781 203.375 80.042969 204.1875 72.722656 211.480469 C 72.714844 211.484375 72.710938 211.492188 72.703125 211.5 C 71.554688 212.644531 71.0625 213.910156 71.238281 215.25 C 71.835938 219.839844 80.324219 224.769531 92.078125 231.59375 C 102.636719 237.722656 115.78125 245.351562 127.058594 255.09375 C 130.785156 258.3125 134.8125 260.84375 138.953125 262.832031 C 139.03125 262.894531 139.117188 262.933594 139.210938 262.957031 C 150.421875 268.277344 162.445312 269.605469 171.648438 269.605469 C 183.769531 269.605469 193.453125 267.363281 195.59375 266.828125 C 198.273438 269.882812 218.804688 293.375 236.242188 315.628906 C 241.777344 342.425781 245.59375 364.503906 245.632812 364.722656 C 245.65625 364.871094 245.726562 365.003906 245.832031 365.109375 C 247.609375 366.886719 249.304688 367.78125 250.878906 367.78125 C 251.148438 367.78125 251.414062 367.753906 251.679688 367.703125 C 254.121094 367.210938 255.207031 364.625 255.25 364.515625 C 255.296875 364.40625 255.3125 364.292969 255.300781 364.175781 C 254.484375 355.5625 253.140625 346.039062 251.308594 335.832031 C 254.84375 340.917969 257.546875 345.195312 259.351562 348.570312 C 259.460938 348.777344 259.660156 348.902344 259.875 348.9375 C 260.160156 356.96875 260.101562 364.511719 259.617188 371.363281 C 259.605469 371.503906 259.636719 371.644531 259.703125 371.765625 C 259.894531 372.097656 261.59375 375 263.972656 375 C 263.996094 375 264.023438 375 264.046875 375 C 265.492188 374.964844 266.757812 373.863281 267.816406 371.734375 C 267.875 371.617188 267.902344 371.488281 267.890625 371.359375 C 267.878906 371.234375 267.585938 367.332031 267.007812 360.636719 C 267.0625 360.652344 267.117188 360.660156 267.171875 360.660156 C 267.488281 360.660156 267.777344 360.453125 267.867188 360.136719 C 267.886719 360.058594 268.507812 357.808594 269.464844 353.773438 C 269.832031 353.25 271.597656 350.699219 274.160156 346.230469 C 274.21875 346.164062 274.261719 346.089844 274.289062 346.003906 C 278.425781 338.761719 284.550781 326.640625 290.132812 310.148438 C 298.789062 284.582031 307.863281 243.027344 302.445312 189.511719 C 302.449219 189.441406 302.441406 189.375 302.425781 189.3125 " fill-opacity="1" fill-rule="nonzero"/></g></svg>