<svg xmlns="http://www.w3.org/2000/svg" xmlns:xlink="http://www.w3.org/1999/xlink" width="500" zoomAndPan="magnify" viewBox="0 0 375 374.999991" height="500" preserveAspectRatio="xMidYMid meet" version="1.0"><defs><clipPath id="6085f1ca06"><path d="M 47 8.445312 L 167 8.445312 L 167 128 L 47 128 Z M 47 8.445312 " clip-rule="nonzero"/></clipPath><clipPath id="5be363181b"><path d="M 211 8.445312 L 331 8.445312 L 331 128 L 211 128 Z M 211 8.445312 " clip-rule="nonzero"/></clipPath><clipPath id="af4b953c31"><path d="M 17 172 L 361 172 L 361 366.195312 L 17 366.195312 Z M 17 172 " clip-rule="nonzero"/></clipPath></defs><path fill="#000000" d="M 2.214844 150.054688 C 2.214844 145.941406 5.558594 142.601562 9.683594 142.601562 L 368.070312 142.601562 C 372.195312 142.601562 375.539062 145.941406 375.539062 150.054688 L 375.539062 179.867188 C 375.539062 183.984375 372.195312 187.320312 368.070312 187.320312 L 9.683594 187.320312 C 5.558594 187.320312 2.214844 183.984375 2.214844 179.867188 Z M 17.148438 172.414062 L 360.605469 172.414062 L 360.605469 157.507812 L 17.148438 157.507812 Z M 17.148438 172.414062 " fill-opacity="1" fill-rule="nonzero"/><g clip-path="url(#6085f1ca06)"><path fill="#000000" d="M 49.191406 114.964844 C 46.316406 117.914062 46.316406 122.574219 49.191406 125.523438 C 52.148438 128.394531 56.8125 128.394531 59.769531 125.523438 L 164.300781 21.179688 C 167.179688 18.230469 167.179688 13.570312 164.300781 10.621094 C 161.34375 7.75 156.679688 7.75 153.722656 10.621094 Z M 49.191406 114.964844 " fill-opacity="1" fill-rule="nonzero"/></g><g clip-path="url(#5be363181b)"><path fill="#000000" d="M 328.5625 114.964844 C 331.441406 117.914062 331.441406 122.574219 328.5625 125.523438 C 325.605469 128.394531 320.941406 128.394531 317.984375 125.523438 L 213.453125 21.179688 C 210.578125 18.230469 210.578125 13.570312 213.453125 10.621094 C 216.410156 7.75 221.078125 7.75 224.03125 10.621094 Z M 328.5625 114.964844 " fill-opacity="1" fill-rule="nonzero"/></g><g clip-path="url(#af4b953c31)"><path fill="#000000" d="M 62.179688 360.53125 C 63.035156 363.867188 65.992188 366.195312 69.414062 366.195312 L 308.339844 366.195312 C 311.761719 366.195312 314.71875 363.867188 315.574219 360.53125 L 360.449219 181.65625 C 361.460938 177.695312 359.050781 173.65625 355.003906 172.648438 C 351.039062 171.640625 346.996094 174.046875 345.984375 178.082031 L 302.429688 351.289062 L 75.324219 351.289062 L 31.847656 178.082031 C 30.835938 174.046875 26.792969 171.640625 22.828125 172.648438 C 18.78125 173.65625 16.371094 177.695312 17.382812 181.65625 Z M 62.179688 360.53125 " fill-opacity="1" fill-rule="nonzero"/></g></svg>